<svg width="34" height="36" viewBox="0 0 34 36" fill="none" xmlns="http://www.w3.org/2000/svg">
<rect width="34" height="36" rx="4" fill="#F59E0B" fill-opacity="0.1"/>
<path d="M10 28C9.45 28 8.97917 27.8042 8.5875 27.4125C8.19583 27.0208 8 26.55 8 26V12C8 11.45 8.19583 10.9792 8.5875 10.5875C8.97917 10.1958 9.45 10 10 10H14.2C14.4167 9.4 14.7792 8.91667 15.2875 8.55C15.7958 8.18333 16.3667 8 17 8C17.6333 8 18.2042 8.18333 18.7125 8.55C19.2208 8.91667 19.5833 9.4 19.8 10H24C24.55 10 25.0208 10.1958 25.4125 10.5875C25.8042 10.9792 26 11.45 26 12V26C26 26.55 25.8042 27.0208 25.4125 27.4125C25.0208 27.8042 24.55 28 24 28H10V28M10 26H24V26V26V12V12V12H10V12V12V26V26V26V26M12 24H19V22H12V24V24M12 20H22V18H12V20V20M12 16H22V14H12V16V16M17 11.25C17.2167 11.25 17.3958 11.1792 17.5375 11.0375C17.6792 10.8958 17.75 10.7167 17.75 10.5C17.75 10.2833 17.6792 10.1042 17.5375 9.9625C17.3958 9.82083 17.2167 9.75 17 9.75C16.7833 9.75 16.6042 9.82083 16.4625 9.9625C16.3208 10.1042 16.25 10.2833 16.25 10.5C16.25 10.7167 16.3208 10.8958 16.4625 11.0375C16.6042 11.1792 16.7833 11.25 17 11.25V11.25M10 26V26V26V12V12V12V12V12V12V26V26V26V26V26" fill="#D97706"/>
</svg>
