<svg width="36" height="36" viewBox="0 0 36 36" fill="none" xmlns="http://www.w3.org/2000/svg">
<rect width="35.55" height="36" rx="4" fill="#0053DB" fill-opacity="0.1"/>
<path d="M20.5 26.925L16.25 22.675L17.65 21.275L20.5 24.125L26.15 18.475L27.55 19.875L20.5 26.925V26.925M26 17H24V12V12V12H22V15H12V12H10V12V12V26V26V26H16V28H10C9.45 28 8.97917 27.8042 8.5875 27.4125C8.19583 27.0208 8 26.55 8 26V12C8 11.45 8.19583 10.9792 8.5875 10.5875C8.97917 10.1958 9.45 10 10 10H14.175C14.3583 9.41667 14.7167 8.9375 15.25 8.5625C15.7833 8.1875 16.3667 8 17 8C17.6667 8 18.2625 8.1875 18.7875 8.5625C19.3125 8.9375 19.6667 9.41667 19.85 10H24C24.55 10 25.0208 10.1958 25.4125 10.5875C25.8042 10.9792 26 11.45 26 12V17V17M17 12C17.2833 12 17.5208 11.9042 17.7125 11.7125C17.9042 11.5208 18 11.2833 18 11C18 10.7167 17.9042 10.4792 17.7125 10.2875C17.5208 10.0958 17.2833 10 17 10C16.7167 10 16.4792 10.0958 16.2875 10.2875C16.0958 10.4792 16 10.7167 16 11C16 11.2833 16.0958 11.5208 16.2875 11.7125C16.4792 11.9042 16.7167 12 17 12V12" fill="#0053DB"/>
</svg>
