<svg width="32" height="36" viewBox="0 0 32 36" fill="none" xmlns="http://www.w3.org/2000/svg">
<path d="M8 25V23H10V16C10 14.6167 10.4167 13.3875 11.25 12.3125C12.0833 11.2375 13.1667 10.5333 14.5 10.2V9.5C14.5 9.08333 14.6458 8.72917 14.9375 8.4375C15.2292 8.14583 15.5833 8 16 8C16.4167 8 16.7708 8.14583 17.0625 8.4375C17.3542 8.72917 17.5 9.08333 17.5 9.5V10.2C18.8333 10.5333 19.9167 11.2375 20.75 12.3125C21.5833 13.3875 22 14.6167 22 16V23H24V25H8V25M16 17.5V17.5V17.5V17.5V17.5V17.5V17.5V17.5V17.5M16 28C15.45 28 14.9792 27.8042 14.5875 27.4125C14.1958 27.0208 14 26.55 14 26H18C18 26.55 17.8042 27.0208 17.4125 27.4125C17.0208 27.8042 16.55 28 16 28V28M12 23H20V16C20 14.9 19.6083 13.9583 18.825 13.175C18.0417 12.3917 17.1 12 16 12C14.9 12 13.9583 12.3917 13.175 13.175C12.3917 13.9583 12 14.9 12 16V23V23" fill="#64748B"/>
<rect x="17.01" y="9" width="6" height="6" rx="3" fill="#9F403D" stroke="white" stroke-width="2"/>
</svg>
