<svg width="38" height="32" viewBox="0 0 38 32" fill="none" xmlns="http://www.w3.org/2000/svg">
<rect width="38" height="32" rx="4" fill="#14B8A6" fill-opacity="0.1"/>
<path d="M21 17C20.1667 17 19.4583 16.7083 18.875 16.125C18.2917 15.5417 18 14.8333 18 14C18 13.1667 18.2917 12.4583 18.875 11.875C19.4583 11.2917 20.1667 11 21 11C21.8333 11 22.5417 11.2917 23.125 11.875C23.7083 12.4583 24 13.1667 24 14C24 14.8333 23.7083 15.5417 23.125 16.125C22.5417 16.7083 21.8333 17 21 17V17M14 20C13.45 20 12.9792 19.8042 12.5875 19.4125C12.1958 19.0208 12 18.55 12 18V10C12 9.45 12.1958 8.97917 12.5875 8.5875C12.9792 8.19583 13.45 8 14 8H28C28.55 8 29.0208 8.19583 29.4125 8.5875C29.8042 8.97917 30 9.45 30 10V18C30 18.55 29.8042 19.0208 29.4125 19.4125C29.0208 19.8042 28.55 20 28 20H14V20M16 18H26C26 17.45 26.1958 16.9792 26.5875 16.5875C26.9792 16.1958 27.45 16 28 16V12C27.45 12 26.9792 11.8042 26.5875 11.4125C26.1958 11.0208 26 10.55 26 10H16C16 10.55 15.8042 11.0208 15.4125 11.4125C15.0208 11.8042 14.55 12 14 12V16C14.55 16 15.0208 16.1958 15.4125 16.5875C15.8042 16.9792 16 17.45 16 18V18M27 24H10C9.45 24 8.97917 23.8042 8.5875 23.4125C8.19583 23.0208 8 22.55 8 22V11H10V22V22V22H27V24V24M14 18V18V18V18V10V10V10V10V10V10V18V18V18V18" fill="#0D9488"/>
</svg>
